# xmcd CD database file
#
# Track frame offsets:
#	150
#	23962
#	44725
#	66232
#	85737
#	107600
#	118470
#	141862
#	163632
#	181000
#
# Disc length: 2619 seconds
#
# Revision: 0
# Processed by: cddbd v1.5.1PL0 Copyright (c) Steve Scherf et al.
# Submitted via: CDex 1.51
#
DISCID=8a0a390a
DTITLE=karak - flow
DYEAR=1992
DGENRE=Japanese Pop
TTITLE0=Visions of Highland
TTITLE1=夢のひき潮でおやすみ
TTITLE2=心が揺れる意味
TTITLE3=夢のスウプ
TTITLE4=海の声
TTITLE5=海辺のまちで
TTITLE6=Keep a Light Burning
TTITLE7=駆ける
TTITLE8=僕の箱庭
TTITLE9=夜を包んで
EXTD=YEAR: 1992
EXTT0=
EXTT1=
EXTT2=
EXTT3=
EXTT4=
EXTT5=
EXTT6=
EXTT7=
EXTT8=
EXTT9=
PLAYORDER=
